<?xml version="1.0"?>
<svg xmlns="http://www.w3.org/2000/svg" xmlns:xlink="http://www.w3.org/1999/xlink" version="1.1" id="Capa_1" x="0px" y="0px" viewBox="0 0 512 512" style="enable-background:new 0 0 512 512;" xml:space="preserve" width="512px" height="512px" class=""><g><g>
	<g>
		<path d="M497,116H15c-8.284,0-15,6.716-15,15v250c0,8.284,6.716,15,15,15h482c8.284,0,15-6.716,15-15V131    C512,122.716,505.284,116,497,116z M181.667,176h42c8.284,0,15,6.716,15,15s-6.716,15-15,15h-42c-8.284,0-15-6.716-15-15    S173.383,176,181.667,176z M181.667,241h42c8.284,0,15,6.716,15,15s-6.716,15-15,15h-42c-8.284,0-15-6.716-15-15    S173.383,241,181.667,241z M117,336H75c-8.284,0-15-6.716-15-15s6.716-15,15-15h42c8.284,0,15,6.716,15,15S125.284,336,117,336z     M117,271H75c-8.284,0-15-6.716-15-15s6.716-15,15-15h42c8.284,0,15,6.716,15,15S125.284,271,117,271z M117,206H75    c-8.284,0-15-6.716-15-15s6.716-15,15-15h42c8.284,0,15,6.716,15,15S125.284,206,117,206z M330.333,336H181.667    c-8.284,0-15-6.716-15-15s6.716-15,15-15h148.666c8.284,0,15,6.716,15,15S338.617,336,330.333,336z M330.333,271h-42    c-8.284,0-15-6.716-15-15s6.716-15,15-15h42c8.284,0,15,6.716,15,15S338.617,271,330.333,271z M330.333,206h-42    c-8.284,0-15-6.716-15-15s6.716-15,15-15h42c8.284,0,15,6.716,15,15S338.617,206,330.333,206z M437,336h-42    c-8.284,0-15-6.716-15-15s6.716-15,15-15h42c8.284,0,15,6.716,15,15S445.284,336,437,336z M437,271h-42c-8.284,0-15-6.716-15-15    s6.716-15,15-15h42c8.284,0,15,6.716,15,15S445.284,271,437,271z M437,206h-42c-8.284,0-15-6.716-15-15s6.716-15,15-15h42    c8.284,0,15,6.716,15,15S445.284,206,437,206z" data-original="#000000" class="active-path" data-old_color="#000000" fill="#636060"/>
	</g>
</g></g> </svg>
