<?xml version="1.0"?>
<svg xmlns="http://www.w3.org/2000/svg" xmlns:xlink="http://www.w3.org/1999/xlink" version="1.1" id="Capa_1" x="0px" y="0px" viewBox="0 0 184.32 184.32" style="enable-background:new 0 0 184.32 184.32;" xml:space="preserve" width="512px" height="512px" class=""><g><rect x="3.413" y="3.413" style="fill:#777777" width="47.787" height="47.787" data-original="#777777" class=""/><path d="M51.2,54.613H3.413C1.527,54.613,0,53.084,0,51.2V3.413C0,1.529,1.527,0,3.413,0H51.2c1.886,0,3.413,1.529,3.413,3.413V51.2  C54.613,53.084,53.086,54.613,51.2,54.613z M6.827,47.787h40.96V6.827H6.827V47.787z" data-original="#000000" class="" style="fill:#777777" data-old_color="#000000"/><rect x="68.267" y="3.413" style="fill:#777777" width="47.787" height="47.787" data-original="#595959" class="active-path" data-old_color="#595959"/><path d="M116.053,54.613H68.267c-1.886,0-3.413-1.529-3.413-3.413V3.413C64.853,1.529,66.381,0,68.267,0h47.787  c1.886,0,3.413,1.529,3.413,3.413V51.2C119.467,53.084,117.939,54.613,116.053,54.613z M71.68,47.787h40.96V6.827H71.68V47.787z" data-original="#000000" class="" style="fill:#777777" data-old_color="#000000"/><rect x="133.12" y="3.413" style="fill:#777777" width="47.787" height="47.787" data-original="#777777" class=""/><path d="M180.907,54.613H133.12c-1.886,0-3.413-1.529-3.413-3.413V3.413c0-1.884,1.527-3.413,3.413-3.413h47.787  c1.886,0,3.413,1.529,3.413,3.413V51.2C184.32,53.084,182.793,54.613,180.907,54.613z M136.533,47.787h40.96V6.827h-40.96V47.787z" data-original="#000000" class="" style="fill:#777777" data-old_color="#000000"/><rect x="3.413" y="68.267" style="fill:#777777" width="47.787" height="47.787" data-original="#595959" class="active-path" data-old_color="#595959"/><path d="M51.2,119.467H3.413c-1.886,0-3.413-1.529-3.413-3.413V68.267c0-1.884,1.527-3.413,3.413-3.413H51.2  c1.886,0,3.413,1.529,3.413,3.413v47.787C54.613,117.938,53.086,119.467,51.2,119.467z M6.827,112.64h40.96V71.68H6.827V112.64z" data-original="#000000" class="" style="fill:#777777" data-old_color="#000000"/><rect x="68.267" y="68.267" style="fill:#777777" width="47.787" height="47.787" data-original="#777777" class=""/><path d="M116.053,119.467H68.267c-1.886,0-3.413-1.529-3.413-3.413V68.267c0-1.884,1.527-3.413,3.413-3.413h47.787  c1.886,0,3.413,1.529,3.413,3.413v47.787C119.467,117.938,117.939,119.467,116.053,119.467z M71.68,112.64h40.96V71.68H71.68V112.64  z" data-original="#000000" class="" style="fill:#777777" data-old_color="#000000"/><rect x="133.12" y="68.267" style="fill:#777777" width="47.787" height="47.787" data-original="#595959" class="active-path" data-old_color="#595959"/><path d="M180.907,119.467H133.12c-1.886,0-3.413-1.529-3.413-3.413V68.267c0-1.884,1.527-3.413,3.413-3.413h47.787  c1.886,0,3.413,1.529,3.413,3.413v47.787C184.32,117.938,182.793,119.467,180.907,119.467z M136.533,112.64h40.96V71.68h-40.96  V112.64z" data-original="#000000" class="" style="fill:#777777" data-old_color="#000000"/><rect x="3.413" y="133.12" style="fill:#777777" width="47.787" height="47.787" data-original="#777777" class=""/><path d="M51.2,184.32H3.413c-1.886,0-3.413-1.529-3.413-3.413V133.12c0-1.884,1.527-3.413,3.413-3.413H51.2  c1.886,0,3.413,1.529,3.413,3.413v47.787C54.613,182.791,53.086,184.32,51.2,184.32z M6.827,177.493h40.96v-40.96H6.827V177.493z" data-original="#000000" class="" style="fill:#777777" data-old_color="#000000"/><rect x="68.267" y="133.12" style="fill:#777777" width="47.787" height="47.787" data-original="#595959" class="active-path" data-old_color="#595959"/><path d="M116.053,184.32H68.267c-1.886,0-3.413-1.529-3.413-3.413V133.12c0-1.884,1.527-3.413,3.413-3.413h47.787  c1.886,0,3.413,1.529,3.413,3.413v47.787C119.467,182.791,117.939,184.32,116.053,184.32z M71.68,177.493h40.96v-40.96H71.68  V177.493z" data-original="#000000" class="" style="fill:#777777" data-old_color="#000000"/><rect x="133.12" y="133.12" style="fill:#777777" width="47.787" height="47.787" data-original="#777777" class=""/><path d="M180.907,184.32H133.12c-1.886,0-3.413-1.529-3.413-3.413V133.12c0-1.884,1.527-3.413,3.413-3.413h47.787  c1.886,0,3.413,1.529,3.413,3.413v47.787C184.32,182.791,182.793,184.32,180.907,184.32z M136.533,177.493h40.96v-40.96h-40.96  V177.493z" data-original="#000000" class="" style="fill:#777777" data-old_color="#000000"/></g> </svg>
